<!-- icon666.com - MILLIONS OF FREE VECTOR ICONS --><svg clip-rule="evenodd" fill-rule="evenodd" image-rendering="optimizeQuality" shape-rendering="geometricPrecision" text-rendering="geometricPrecision" viewBox="0 0 1707 1707" xmlns="http://www.w3.org/2000/svg" xmlns:xlink="http://www.w3.org/1999/xlink"><linearGradient id="id0" gradientUnits="userSpaceOnUse" x1="853.331" x2="853.331" y1=".004" y2="1706.67"><stop offset="0" stop-color="#66c"></stop><stop offset=".509804" stop-color="#f0f"></stop><stop offset="1" stop-color="#f60"></stop></linearGradient><g id="Layer_x0020_1"><path d="m1245 1299h-637c-51 0-51-78 0-78h637c51 0 51 78 0 78zm360 408h-1009c-22 0-39-18-39-39v-134h-135c-21 0-39-18-39-39v-1095h-281c-22 0-39-17-39-38v-163c0-110 90-200 199-199h972c131 0 237 107 236 237v153h135c21 0 39 17 39 39v1239c0 21-18 39-39 39zm-1010-251h797v-1181h-931v1181zm40 78v95h931v-1161h-96v1027c0 21-18 39-39 39zm752-1337c-17-68-79-119-153-119h-814c25 33 41 74 41 119zm-1246 126h242v-124c0-67-54-121-121-121s-121 54-121 121zm986 163h-401c-52 0-52-78 0-78h401c52 0 52 78 0 78zm118 203h-637c-51 0-51-78 0-78h637c51 0 51 78 0 78zm0 204h-637c-51 0-51-78 0-78h637c51 0 51 78 0 78zm0 203h-637c-51 0-51-78 0-78h637c51 0 51 78 0 78z" fill="url(#id0)"></path></g></svg>